# xmcd
#
# Track frame offsets:
#	150
#	16882
#	35275
#	54985
#	71722
#	88522
#	106719
#	120584
#	134416
#	151232
#	167964
#	186357
#	206067
#	222804
#	239604
#	257801
#	271666
#	285498
#
# Disc length: 4030
#
# Revision: 2
# Processed by: cddbd v1.5.2PL0 Copyright (c) Steve Scherf et al.
# Submitted via: kJams Pro 1.0b99
#
DISCID=fc0fbc12
DTITLE=Various Artist - NSC 3038
DYEAR=2004
DGENRE=Karaoke
TTITLE0=Garth Brooks - Why Ain't I Running
TTITLE1=Sara Evans - Backseat Of A Greyhound Bus
TTITLE2=Mark Wills - When You Think Of Me
TTITLE3=Jimmy Wayne - Stay Gone
TTITLE4=Kellie Coffey - Whatever It Takes
TTITLE5=Steve Holy - Rock–a–bye Heart
TTITLE6=Anthony Smith - Half A Man
TTITLE7=John Michael Montgomery - Country Thang
TTITLE8=Aaron Tippin - Love Like There's No Tomorrow
TTITLE9=Garth Brooks – Vocals - Why Ain't I Running
TTITLE10=Sara Evans – Vocals - Backseat Of A Greyhound Bus
TTITLE11=Mark Wills – Vocals - When You Think Of Me
TTITLE12=Jimmy Wayne – Vocals - Stay Gone
TTITLE13=Kellie Coffey – Vocals - Whatever It Takes
TTITLE14=Steve Holy – Vocals - Rock–a–bye Heart
TTITLE15=Anthony Smith – Vocals - Half A Man
TTITLE16=John Michael Montgomery – Vocals - Country Thang
TTITLE17=Aaron Tippin – Vocals - Love Like There's No Tomorrow
EXTD=
EXTT0=
EXTT1=
EXTT2=
EXTT3=
EXTT4=
EXTT5=
EXTT6=
EXTT7=
EXTT8=
EXTT9=
EXTT10=
EXTT11=
EXTT12=
EXTT13=
EXTT14=
EXTT15=
EXTT16=
EXTT17=
PLAYORDER=
